# xmcd
#
# Track frame offsets: 
#        150
#        13822
#        39192
#        54444
#        68103
#        81747
#        94654
#        111081
#        128513
#        142573
#        154300
#        165139
#        178558
#        195648
#        209295
#        226584
#        241869
#        252683
#        263978
#        274818
#        289663
#        305112
#
# Disc length: 4213 seconds
#
# Revision: 0
# Processed by: cddbd v1.5.2PL0 Copyright (c) Steve Scherf et al.
# Submitted via: ExactAudioCopy v0.99pb4
#
DISCID=2b107316
DTITLE=Etta James - The Essential Etta James
DYEAR=1993
DGENRE=Blues
TTITLE0=All I Could Do Is Cry
TTITLE1=My Dearest Darling
TTITLE2=If I Can't Have You
TTITLE3=A Sunday Kind Of Love
TTITLE4=Anything To Say You're Mine
TTITLE5=At Last
TTITLE6=Seven Day Fool
TTITLE7=Trust In Me
TTITLE8=Don't Cry Baby
TTITLE9=Fool That I Am
TTITLE10=One For My Baby (And One More For The Road)
TTITLE11=Waiting For Charlie (To Come Home)
TTITLE12=Something's Got A Hold On Me
TTITLE13=Next Door To The Blues
TTITLE14=These Foolish Things (Remind Me Of You)
TTITLE15=Stop The Wedding
TTITLE16=Prisoner Of Love
TTITLE17=Pushover
TTITLE18=Would It Make Any Difference To You
TTITLE19=Pay Back
TTITLE20=Two Sides (To Every Story)
TTITLE21=Baby What You Want Me To Do
EXTD=
EXTT0=
EXTT1=
EXTT2=
EXTT3=
EXTT4=
EXTT5=
EXTT6=
EXTT7=
EXTT8=
EXTT9=
EXTT10=
EXTT11=
EXTT12=
EXTT13=
EXTT14=
EXTT15=
EXTT16=
EXTT17=
EXTT18=
EXTT19=
EXTT20=
EXTT21=
PLAYORDER=
